{"title":"Subramanyam For Sale (2015) Telugu DVDSCR - 1CD - x264 - D3Si Ma","uid":12498741,"size":739621402,"categoryP":"video","categoryS":"movies","magnet":"?xt=urn:btih:88c37db41b5e4b1d6277cef6e7023c639792faa0&amp;dn=Subramanyam+For+Sale+%282015%29+Telugu+DVDSCR+-+1CD+-+x264+-+D3Si+Ma&amp;tr=udp%3A%2F%2Ftracker.leechers-paradise.org%3A6969&amp;tr=udp%3A%2F%2Fzer0day.ch%3A1337&amp;tr=udp%3A%2F%2Fopen.demonii.com%3A1337&amp;tr=udp%3A%2F%2Ftracker.coppersurfer.tk%3A6969&amp;tr=udp%3A%2F%2Fexodus.desync.com%3A6969","seeders":1,"leechers":0,"uploader":"desi11","files":4,"time":1443329926,"description":"Screens\r\n \nhttps://www.picbee.pw/image/xr \nhttps://www.picbee.pw/image/93 \nhttps://www.picbee.pw/image/96 \nhttps://www.picbee.pw/image/9D \nhttps://www.picbee.pw/image/9J\r\n\r\nINFO\r\n\r\n\r\n\r\nFormat : Matroska\r\nFormat version : Version 2\r\nFile size : 697 MiB\r\nDuration : 2h 30mn\r\nOverall bit rate : 647 Kbps\r\nEncoded date : UTC 2015-09-26 11:02:01\r\nWriting application : mkvmerge v7.7.0 ('Six Voices') 32bit built on Feb 28 2015 23:23:00\r\nWriting library : libebml v1.3.1 + libmatroska v1.4.2\r\n_STATISTICS_WRITING_APP : mkvmerge v7.7.0 ('Six Voices') 32bit built on Feb 28 2015 23:23:00\r\n_STATISTICS_WRITING_DATE_UTC : 2015-09-26 11:02:01\r\n_STATISTICS_TAGS : BPS DURATION NUMBER_OF_FRAMES NUMBER_OF_BYTES\r\nDURATION : 02:30:38.880000000\r\nNUMBER_OF_FRAMES : 376620\r\nNUMBER_OF_BYTES : 72311040\r\n\r\nVideo\r\nID : 1\r\nFormat : AVC\r\nFormat/Info : Advanced Video Codec\r\nFormat profile :   \r\nFormat settings, CABAC : Yes\r\nFormat settings, ReFrames : 5 frames\r\nCodec ID : V_MPEG4/ISO/AVC\r\nDuration : 2h 30mn\r\nBit rate : 581 Kbps\r\nWidth : 640 pixels\r\nHeight : 272 pixels\r\nDisplay aspect ratio : 2.35:1\r\nFrame rate mode : Constant\r\nFrame rate : 23.976 fps\r\nColor space : YUV\r\nChroma subsampling : 4:2:0\r\nBit depth : 8 bits\r\nScan type : Progressive\r\nBits/(Pixel*Frame) : 0.139\r\nStream size : 614 MiB (88%)\r\nTitle : D3SiM\r\nWriting library : x264 core 146 r2538 121396c\r\nEncoding settings : cabac=1 / ref=5 / deblock=1:-1:-1 / analyse=0x3:0x113 / me=hex / subme=7 / psy=1 / psy_rd=1.00:0.15 / mixed_ref=1 / me_range=16 / chroma_me=1 / trellis=2 / 8x8dct=1 / cqm=1 / deadzone=21,11 / fast_pskip=1 / chroma_qp_offset=-3 / threads=18 / lookahead_threads=2 / sliced_threads=0 / nr=0 / decimate=1 / interlaced=0 / bluray_compat=0 / constrained_intra=0 / bframes=3 / b_pyramid=2 / b_adapt=1 / b_bias=0 / direct=3 / weightb=1 / open_gop=0 / weightp=2 / keyint=240 / keyint_min=23 / scenecut=40 / intra_refresh=0 / rc_lookahead=50 / rc=2pass / mbtree=1 / bitrate=581 / ratetol=1.0 / qcomp=0.60 / qpmin=4 / qpmax=69 / qpstep=4 / cplxblur=20.0 / qblur=0.5 / vbv_maxrate=17500 / vbv_bufsize=17500 / nal_hrd=none / filler=0 / ip_ratio=1.40 / aq=1:1.00\r\nDefault : Yes\r\nForced : No\r\nColor range : Limited\r\nColor primaries : BT.601 NTSC\r\nTransfer characteristics : BT.601\r\nMatrix coefficients : BT.601\r\n\r\nAudio\r\nID : 2\r\nFormat : MPEG Audio\r\nFormat version : Version 2\r\nFormat profile : Layer 3\r\nMode : Joint stereo\r\nMode extension : MS Stereo\r\nCodec ID : A_MPEG/L3\r\nCodec ID/Hint : MP3\r\nDuration : 2h 30mn\r\nBit rate mode : Constant\r\nBit rate : 64.0 Kbps\r\nChannel(s) : 2 channels\r\nSampling rate : 24.0 KHz\r\nCompression mode : Lossy\r\nDelay relative to video : 14ms\r\nStream size : 69.0 MiB (10%)\r\nTitle : D3SiM\r\nDefault : Yes\r\nForced : No","torrent":{"xt":"urn:btih:88c37db41b5e4b1d6277cef6e7023c639792faa0","amp;dn":"Subramanyam+For+Sale+%282015%29+Telugu+DVDSCR+-+1CD+-+x264+-+D3Si+Ma","amp;tr":["udp%3A%2F%2Ftracker.leechers-paradise.org%3A6969","udp%3A%2F%2Fzer0day.ch%3A1337","udp%3A%2F%2Fopen.demonii.com%3A1337","udp%3A%2F%2Ftracker.coppersurfer.tk%3A6969","udp%3A%2F%2Fexodus.desync.com%3A6969"],"infoHash":"88c37db41b5e4b1d6277cef6e7023c639792faa0","infoHashBuffer":{"type":"Buffer","data":[136,195,125,180,27,94,75,29,98,119,206,246,231,2,60,99,151,146,250,160]},"announce":[],"urlList":[]}}